<?xml version="1.0" encoding="UTF-8"?>
<svg id="Camada_2" data-name="Camada 2" xmlns="http://www.w3.org/2000/svg" xmlns:xlink="http://www.w3.org/1999/xlink" viewBox="0 0 2203.86 1676.54">
  <defs>
    <style>
      .cls-1 {
        fill: url(#Gradiente_sem_nome_4);
      }

      .cls-2 {
        fill: url(#Gradiente_sem_nome_4-2);
      }
    </style>
    <linearGradient id="Gradiente_sem_nome_4" data-name="Gradiente sem nome 4" x1="0" y1="456.89" x2="2203.86" y2="456.89" gradientUnits="userSpaceOnUse">
      <stop offset="0" stop-color="#ff3932"/>
      <stop offset="1" stop-color="#ff8348"/>
    </linearGradient>
    <linearGradient id="Gradiente_sem_nome_4-2" data-name="Gradiente sem nome 4" x1="255.03" y1="1295.14" x2="962.69" y2="1295.14" xlink:href="#Gradiente_sem_nome_4"/>
  </defs>
  <g id="Camada_1-2" data-name="Camada 1">
    <g>
      <path class="cls-1" d="M2103.12,156.64c-158.03,57.7-1227.1,354.35-1227.1,354.35,0,0-55.06,21.46,1.69-51.67,56.75-73.13,297.03-381.46,297.03-381.46,0,0,69.44-78.14,37.25-77.86,0,0-159.6,45.34-845.91,255.27-125.88,38.5-265.94,140.24-311.72,217.03-48.15,80.77-85.83,241.69-15.81,327.53,70.02,85.84,186.35,160.94,188.61,77.93s-.56-165.46,113.51-209.51c98.98-38.22,330.6-99.4,390.17-114.92,7.45-1.94,14.85-4.09,22.16-6.48,22.92-7.51,84.12-23.36,35.2,40.93-59.29,77.93-180.95,239.72-180.95,239.72,0,0-72.32,79.62,18.31,81.32s659.58-7.34,659.58-7.34l143.72-2.54s177.32,9.6,261.46-74.54c84.14-84.14,325.83-408.56,325.83-408.56l183.99-249.47s32.9-57.17-97.03-9.73Z"/>
      <path class="cls-2" d="M554.13,926.14c-5.65-12.42-54.21-12.37-54.21-12.37,0,0-133.27-.06-196.52,0s-46.31,59.8-46.31,59.8c0,0,97.73,300.61,144.56,380.61,37.8,64.56,365.93,225.88,470.96,286.87,105.04,60.99,89.22,24.85,89.22,24.85l-407.72-739.76Z"/>
    </g>
  </g>
</svg>