<?xml version="1.0" encoding="UTF-8"?>
<svg id="Camada_2" data-name="Camada 2" xmlns="http://www.w3.org/2000/svg" xmlns:xlink="http://www.w3.org/1999/xlink" viewBox="0 0 2874.22 2874.22">
  <defs>
    <style>
      .cls-1 {
        fill: #ededed;
        stroke: #a0a0a0;
        stroke-miterlimit: 10;
      }

      .cls-2 {
        fill: url(#Gradiente_sem_nome_12);
      }

      .cls-3 {
        fill: url(#Gradiente_sem_nome_12-2);
      }
    </style>
    <linearGradient id="Gradiente_sem_nome_12" data-name="Gradiente sem nome 12" x1="212.12" y1="1013.14" x2="2662.1" y2="1013.14" gradientUnits="userSpaceOnUse">
      <stop offset="0" stop-color="#ff4836"/>
      <stop offset="1" stop-color="#ff8348"/>
    </linearGradient>
    <linearGradient id="Gradiente_sem_nome_12-2" data-name="Gradiente sem nome 12" x1="495.63" y1="1945.01" x2="1282.32" y2="1945.01" xlink:href="#Gradiente_sem_nome_12"/>
  </defs>
  <g id="Camada_1-2" data-name="Camada 1">
    <g>
      <rect class="cls-1" x=".5" y=".5" width="2873.22" height="2873.22" rx="568.59" ry="568.59"/>
      <g>
        <path class="cls-2" d="M2550.11,679.35c-175.68,64.14-1364.15,393.93-1364.15,393.93,0,0-61.21,23.86,1.88-57.44,63.09-81.3,330.21-424.06,330.21-424.06,0,0,77.19-86.87,41.41-86.56,0,0-177.42,50.41-940.38,283.78-139.94,42.8-295.64,155.9-346.53,241.27-53.52,89.79-95.42,268.69-17.58,364.11,77.84,95.42,207.16,178.91,209.68,86.63,2.51-92.28-.63-183.94,126.18-232.9,110.03-42.49,367.53-110.5,433.74-127.75,8.28-2.16,16.51-4.54,24.64-7.21,25.48-8.35,93.51-25.97,39.13,45.5-65.92,86.63-201.16,266.49-201.16,266.49,0,0-80.4,88.52,20.36,90.4,100.76,1.88,733.24-8.16,733.24-8.16l159.77-2.82s197.12,10.67,290.66-82.87c93.54-93.54,362.22-454.19,362.22-454.19l204.54-277.33s36.57-63.55-107.86-10.82Z"/>
        <path class="cls-3" d="M828.13,1534.8c-6.28-13.81-60.27-13.75-60.27-13.75,0,0-148.15-.06-218.46,0-70.31.06-51.48,66.48-51.48,66.48,0,0,108.65,334.18,160.71,423.12,42.02,71.78,406.8,251.11,523.56,318.91,116.77,67.8,99.19,27.62,99.19,27.62l-453.25-822.38Z"/>
      </g>
    </g>
  </g>
</svg>